<?xml version="1.0" encoding="utf-8"?>
<!-- Generator: Adobe Illustrator 28.0.0, SVG Export Plug-In . SVG Version: 6.00 Build 0)  -->
<svg version="1.1" id="Layer_1" xmlns="http://www.w3.org/2000/svg" xmlns:xlink="http://www.w3.org/1999/xlink" x="0px" y="0px"
	 viewBox="0 0 422.6 90" style="enable-background:new 0 0 422.6 90;" xml:space="preserve">
<style type="text/css">
	.st0{fill:url(#SVGID_1_);}
	.st1{fill:url(#SVGID_00000175297525297643299760000010883534990772911506_);}
	.st2{fill:url(#SVGID_00000137831538551721920710000001927579470123445944_);}
	.st3{fill:url(#SVGID_00000065754034253933213690000003148160853446028968_);}
</style>
<g id="Layer_2_00000150785868984551136280000016357497946028866948_">
	<g id="Layer_1-2">
		<path d="M140.6,72l-0.2-4.7h0.7c0.1,0.5,0.2,1,0.4,1.5c0.7,2.2,2,3.6,4.6,3.6c2.8,0,4.4-1.6,4.4-4c0-2.1-1.4-3.4-3.4-4.3l-0.9-0.5
			c-3.4-1.6-5-3-5-6c0-3.4,2.8-5.4,6.7-5.4c1.6,0,3.1,0.3,4.6,0.9v4.3h-0.7c-0.1-0.5-0.2-0.9-0.3-1.3c-0.3-1.8-1.9-3.2-3.8-3
			c-2.4,0-3.8,1.3-3.8,3.5s0.9,3.1,3.8,4.5l0.9,0.5c2.6,1.3,4.8,2.9,4.8,5.9c0,3.9-3.3,5.8-7.2,5.8C144.1,73.2,142.3,72.8,140.6,72z
			"/>
		<path d="M156.1,66.6c0-4.3,2.9-7.3,7.1-7.3c2.8,0,4.2,1.2,4.2,2c-0.1,0.7-0.7,1.3-1.4,1.4c-0.3,0-0.7-0.4-1.2-1l-0.4-0.5
			c-0.8-0.8-1.1-1-2-1c-2.2,0-3.8,2.2-3.8,5.3c0,3.7,2.2,6.1,5,6.1c1.4,0,2.7-0.5,3.6-1.5l0.4,0.5c-1.4,1.7-3.4,2.6-5.5,2.7
			C159,73.2,156.1,70.8,156.1,66.6z"/>
		<path d="M169.2,72.8v-0.6l2.4-0.6V52.7l-2.3-0.7v-0.6l4.8-0.6L174,61.5h0.1c1.2-1.4,2.9-2.3,4.8-2.3c2.4,0,3.9,1.3,3.9,4v8.5
			l2.3,0.6v0.6H178v-0.6l2.4-0.6v-8c0.1-1.5-1-2.8-2.5-2.9c-0.2,0-0.3,0-0.5,0c-1.3,0-2.5,0.5-3.4,1.5v9.3l2.4,0.6v0.6L169.2,72.8z"
			/>
		<path d="M187,66.4c-0.2-3.7,2.6-6.9,6.3-7.1c0.2,0,0.3,0,0.5,0c3.8,0.1,6.8,3.4,6.7,7.2c-0.1,3.6-3,6.5-6.7,6.7
			C189.6,73.2,187,70.4,187,66.4z M198,66.9c0-3.5-1.4-6.8-4.4-6.8c-2.6,0-3.9,2.3-3.9,5.5c0,3.8,1.6,6.8,4.4,6.8
			C196.6,72.4,198,70.2,198,66.9z"/>
		<path d="M203.1,66.4c-0.2-3.7,2.6-6.9,6.3-7.1c0.2,0,0.3,0,0.5,0c3.8,0.1,6.8,3.4,6.7,7.2c-0.1,3.6-3.1,6.5-6.7,6.7
			C205.8,73.2,203.1,70.4,203.1,66.4z M214.1,66.9c0-3.5-1.4-6.8-4.4-6.8c-2.6,0-3.9,2.3-3.9,5.5c0,3.8,1.6,6.8,4.4,6.8
			C212.8,72.4,214.2,70.2,214.1,66.9L214.1,66.9z"/>
		<path d="M218.9,72.8v-0.6l2.4-0.6V52.7l-2.3-0.7v-0.6l4.8-0.6v20.7l2.4,0.6v0.6H218.9z"/>
		<path d="M234.7,69.2c0-3.6,3.1-9.7,7.5-9.7c2.2,0,3.6,1.4,3.6,3.9c0,3.5-3,9.7-7.5,9.7C236.1,73,234.7,71.8,234.7,69.2z
			 M243.8,62.2c0-1.4-0.7-2-1.5-2c-2.6,0-5.6,7.4-5.6,10.4c0,1.3,0.6,1.9,1.5,1.9C240.7,72.5,243.8,65.5,243.8,62.2L243.8,62.2z"/>
		<path d="M241.3,79.7c0-0.4,0.3-0.8,0.7-0.8c0,0,0,0,0.1,0c0.2,0,0.4,0.2,1,0.7c0.2,0.3,0.6,0.5,0.9,0.5c0.7,0,1.3-1,2.2-4
			c0.6-1.8,1.1-3.7,4.2-14.5H248l0.2-0.8l2.4-0.1l0.8-2.5c0.5-2.1,1.7-4,3.3-5.5c1-0.8,2.2-1.2,3.5-1.2c1.4,0,2.4,0.5,2.4,1
			c-0.1,0.6-0.6,1-1.2,1.1c-0.2,0-0.5-0.2-0.7-0.4c-0.5-0.5-1.2-0.7-1.9-0.8c-0.6,0.1-1.2,0.4-1.5,1c-0.7,1.3-1.2,2.7-1.6,4.1
			l-1,3.3h3l-0.3,0.9h-3l-2.5,8.2c-0.6,2.5-1.4,4.9-2.4,7.2c-1.2,2.4-2.6,3.8-4.6,3.8C242.1,80.7,241.3,80.3,241.3,79.7z"/>
		<path d="M280.9,72.8c-4,0-6.8-0.1-9.5-0.1h-7.5v-0.6l3.3-0.8V53.8l-3.2-0.7v-0.6h8.8c3,0,5.9-0.1,7.4-0.1l-0.2,4.4h-0.7v-0.2
			c-0.2-2.1-0.8-2.7-2.7-2.9c-1.4-0.2-5-0.2-6.5-0.2V62c0.5,0,7-0.2,7.4-0.2s0.5-0.1,0.6-0.5l0.6-2.5h0.7V66h-0.7l-0.6-2.6
			c-0.1-0.4-0.3-0.5-0.6-0.5l-7.3-0.2v9.1c6.2-0.2,7.4-0.2,8-0.3c1.9-0.3,2.3-2,3.1-3.9h0.7L280.9,72.8z"/>
		<path d="M283.6,72.8v-0.6l2.4-0.6v-10l-2-0.4v-0.6c1.5-0.3,2.9-1,3.9-2.1h0.5v2.9l0,0c1.2-1.4,2.9-2.3,4.8-2.3
			c2.4,0,3.9,1.3,3.9,4v8.5l2.3,0.6v0.6h-7.2v-0.6l2.4-0.6v-8c0.1-1.5-1-2.8-2.5-2.9c-0.2,0-0.3,0-0.5,0c-1.3,0-2.5,0.5-3.4,1.5v9.3
			l2.4,0.6v0.6L283.6,72.8z"/>
		<path d="M300.9,77.3c0-1.5,1.8-2.7,3.8-3.8v-0.2c-1.3-0.5-2.4-1.5-3-2.7v-0.3c1-0.6,2.6-1.4,3.4-1.8v-0.2c-1.8-0.6-3-2.3-3-4.3
			c0-2.8,2.2-4.7,5.2-4.7c1.3,0,2.6,0.4,3.8,1h4.2v1.6h-3.3l0,0c0.3,0.6,0.4,1.3,0.4,1.9c0,3.1-2.4,4.9-5.3,4.9
			c-0.3,0-0.6,0-0.9-0.1c-0.6,0.4-1.5,0.9-1.5,1.5c0,1.2,1.7,1.5,4.5,1.5c3.1,0,5.5,0.6,5.5,3.2c0,3.4-3.8,6-8.2,6
			C303,80.7,300.9,79.2,300.9,77.3z M312.6,75.8c0-1.9-2-2.3-4.9-2.3h-2c-1.1,0.6-2.5,1.9-2.5,3.2c0,1.7,1.9,2.8,4.4,2.8
			C310.7,79.5,312.6,78,312.6,75.8z M309.9,64.2c0-2.5-1.1-4.2-3-4.2c-1.7,0-2.6,1.3-2.6,3.5c0,2.4,1.1,4.4,3,4.4
			C309,67.8,309.9,66.3,309.9,64.2L309.9,64.2z"/>
		<path d="M316.5,72.8v-0.6l2.4-0.6v-10l-2-0.4v-0.6c1.5-0.3,2.9-1,4-2.1h0.5v13.1l2.4,0.6v0.6L316.5,72.8z M318.6,53
			c0-0.9,0.7-1.5,1.5-1.6c0,0,0,0,0.1,0c0.8-0.1,1.6,0.6,1.6,1.4c0,0.1,0,0.1,0,0.2c0.1,0.8-0.6,1.5-1.4,1.6c-0.1,0-0.2,0-0.3,0
			C319.3,54.6,318.6,53.9,318.6,53C318.6,53,318.6,53,318.6,53z"/>
		<path d="M325.3,72.8v-0.6l2.4-0.6v-10l-2-0.4v-0.6c1.5-0.3,2.9-1,3.9-2.1h0.5v2.9l0,0c1.2-1.4,2.9-2.3,4.8-2.3
			c2.4,0,3.9,1.3,3.9,4v8.5l2.3,0.6v0.6H334v-0.6l2.4-0.6v-8c0.1-1.5-1-2.8-2.5-2.9c-0.2,0-0.3,0-0.5,0c-1.3,0-2.5,0.5-3.4,1.5v9.3
			l2.4,0.6v0.6L325.3,72.8z"/>
		<path d="M343,66.4c0-4.4,2.8-7.2,6.2-7.2c1.2-0.1,2.4,0.3,3.4,1.1c0.9,1,1.5,2.1,2,3.3l-0.2,0.5l-8.9-0.1
			c-0.1,0.4-0.1,0.8-0.1,1.2c0,3.1,1.6,6.2,5.2,6.2c1.4,0,2.8-0.5,3.8-1.5l0.3,0.5c-1.4,1.6-3.4,2.6-5.5,2.7
			C346,73.2,343,70.8,343,66.4z M351,63.2c0.6,0,0.8-0.1,0.8-0.5c0-1.4-1.1-2.6-2.5-2.7c-0.1,0-0.1,0-0.2,0
			c-1.8,0.1-3.3,1.5-3.5,3.4C347.5,63.2,349.3,63.2,351,63.2L351,63.2z"/>
		<path d="M357,66.4c0-4.4,2.8-7.2,6.2-7.2c1.2-0.1,2.4,0.3,3.4,1.1c0.9,1,1.5,2.1,2,3.3l-0.2,0.5l-8.9-0.1
			c-0.1,0.4-0.1,0.8-0.1,1.2c0,3.1,1.6,6.2,5.2,6.2c1.4,0,2.8-0.5,3.8-1.5l0.3,0.5c-1.4,1.6-3.4,2.6-5.5,2.7
			C360,73.2,357,70.8,357,66.4z M365,63.2c0.6,0,0.8-0.1,0.8-0.5c0-1.4-1.1-2.6-2.5-2.7c-0.1,0-0.1,0-0.2,0
			c-1.8,0.1-3.3,1.5-3.5,3.4C361.5,63.2,363.3,63.2,365,63.2L365,63.2z"/>
		<path d="M370.7,72.8v-0.6l2.2-0.7v-9.8l-2-0.4v-0.6c1.5-0.3,2.9-1.2,3.8-2.5h0.6v3.4l0,0c0.5-0.7,2-2.5,3.7-2.5
			c1.1,0,1.6,0.6,1.6,1.3c0,0.8-0.6,1.5-1.4,1.6c-0.6-0.4-1.3-0.7-2-1c-0.8,0-1.7,1.2-1.9,1.9v8.6l3.5,0.7v0.6L370.7,72.8z"/>
		<path d="M382.3,72.8v-0.6l2.4-0.6v-10l-2-0.4v-0.6c1.5-0.3,2.9-1,4-2.1h0.5v13.1l2.4,0.6v0.6L382.3,72.8z M384.4,53
			c0-0.8,0.6-1.6,1.5-1.6c0,0,0.1,0,0.1,0c0.8,0,1.5,0.6,1.6,1.4c0,0.1,0,0.1,0,0.2c0,0.8-0.6,1.5-1.4,1.5c-0.1,0-0.1,0-0.2,0
			C385.2,54.6,384.4,53.9,384.4,53C384.4,53,384.4,53,384.4,53z"/>
		<path d="M391.1,72.8v-0.6l2.4-0.6v-10l-2-0.4v-0.6c1.5-0.3,2.9-1,3.9-2.1h0.5v2.9l0,0c1.2-1.4,2.9-2.3,4.8-2.3
			c2.4,0,3.9,1.3,3.9,4v8.5l2.3,0.6v0.6h-7.2v-0.6l2.4-0.6v-8c0.1-1.5-1-2.8-2.5-2.9c-0.2,0-0.3,0-0.5,0c-1.3,0-2.5,0.5-3.4,1.5v9.3
			l2.4,0.6v0.6L391.1,72.8z"/>
		<path d="M408.4,77.3c0-1.5,1.8-2.7,3.8-3.8v-0.2c-1.3-0.5-2.4-1.5-3-2.7v-0.3c1-0.6,2.6-1.4,3.4-1.8v-0.2c-1.8-0.6-3.1-2.4-3-4.3
			c0-2.8,2.2-4.7,5.2-4.7c1.3,0,2.6,0.4,3.8,1h4.2v1.6h-3.3l0,0c0.3,0.6,0.4,1.3,0.4,1.9c0,3.1-2.4,4.9-5.3,4.9
			c-0.3,0-0.6,0-0.9-0.1c-0.6,0.4-1.5,0.9-1.5,1.5c0,1.2,1.7,1.5,4.5,1.5c3.1,0,5.5,0.6,5.5,3.2c0,3.4-3.8,6-8.2,6
			C410.5,80.7,408.4,79.2,408.4,77.3z M420.1,75.8c0-1.9-2-2.3-4.9-2.3h-2c-1.1,0.6-2.5,1.9-2.5,3.2c0,1.7,1.9,2.8,4.4,2.8
			C418.2,79.5,420.1,78,420.1,75.8z M417.4,64.2c0-2.5-1.1-4.2-3-4.2c-1.7,0-2.6,1.3-2.6,3.5c0,2.4,1.1,4.4,3,4.4
			C416.5,67.8,417.4,66.3,417.4,64.2z"/>
		<path d="M149.1,40.4L141.4,24c-0.8-1.7-1.2-2.2-2.8-2.8v-0.4h9.2v0.4c-2.2,0.7-2.5,1.3-1.8,2.9l6,13.2l5.6-12.5
			c0.7-1.6,0.3-2.6-3.2-3.6v-0.4h8v0.4c-1.3,0.6-1.7,1.1-2.5,2.8l-7.6,16.5L149.1,40.4z M168.8,24.3c0.7-1.6,0.4-2.4-1.9-3.1v-0.4
			h6.8l7.6,16.5c0.8,1.7,1.2,2.2,2.3,2.8v0.4h-8.7V40c2.2-0.7,2.5-1.3,1.8-2.9l-1.3-2.9H166l-1,2.1c-0.7,1.6-0.3,2.6,3.2,3.6v0.4h-8
			V40c1.3-0.7,2.3-1.9,2.8-3.3L168.8,24.3z M166.8,32.6h7.8l-3.9-8.6L166.8,32.6z M206.2,40.4h-2.7l-14.2-15.8v10.3
			c0,3.2,0.5,3.9,3.9,5.1v0.4H185V40c2.1-1.1,2.5-1.9,2.5-5.1v-9.4c0-3.2-0.4-3.7-2.7-4.3v-0.4h6.8l12.8,14.3v-8.8
			c0-3.2-0.5-3.9-3.9-5.1v-0.4h8.2v0.4c-2.1,1.1-2.4,1.9-2.4,5.1L206.2,40.4z M211.5,40.4V40c2.3-0.6,2.7-1.1,2.7-4.3V25.5
			c0-3.2-0.4-3.7-2.7-4.3v-0.4h11.2c6.5,0,12.2,4.2,12.2,9.9s-5.7,9.8-12.2,9.8H211.5z M218.3,38.7h4.2c4.5,0,7.7-2.5,7.7-8.1
			s-3.2-8.1-7.7-8.1h-4.2V38.7z M236.8,20.7h19.4l0.6,6.8h-0.4c-2.6-4.6-3.9-5.1-6.4-5.1h-6.3v7h4.1c1.2,0,1.8-0.3,3.7-3.7h0.4v9.2
			h-0.4c-1.9-3.4-2.5-3.7-3.7-3.7h-4.1v7.5h6.2c2.7,0,4.2-0.7,6.9-5.6h0.4l-0.7,7.3h-19.6V40c2.3-0.6,2.7-1.1,2.7-4.3V25.5
			c0-3.2-0.4-3.7-2.7-4.3V20.7z M270.4,40v0.4h-9.8V40c2.3-0.6,2.7-1.1,2.7-4.3V25.5c0-3.2-0.4-3.7-2.7-4.3v-0.4h11.2
			c6.5,0,9.7,1.9,9.7,5.1c0,2.3-2.4,4-6.4,4.4c2.7,0.4,3.9,1.7,5,4.2l1.5,3.3c0.6,1.4,0.9,1.7,2.1,2.2v0.4h-3
			c-2.3,0-3.1-0.6-3.8-2.7l-1.3-3.6c-0.9-2.5-1.7-3-4-3h-4.1v4.5C267.4,38.9,267.9,39.4,270.4,40z M277,25.9c0-2.5-1.8-3.5-5.5-3.5
			h-4.1v6.9h4.1C275.2,29.4,277,28.4,277,25.9z M296,40.4h-10.9V40c2.2-0.6,2.6-1.1,2.6-4.3V25.5c0-3.2-0.4-3.7-2.7-4.3v-0.4h10.7
			c6.5,0,9.7,1.9,9.7,4.8c0,2.5-2.4,4.1-6.6,4.4c4.8,0.3,7.5,2.4,7.5,5.1C306.3,38.3,302.9,40.4,296,40.4L296,40.4z M295.4,29.3
			c3.6,0,5.4-1,5.4-3.4s-1.8-3.4-5.4-3.4h-3.6v6.8H295.4z M295.8,38.7c3.9,0,5.8-1.1,5.8-3.8s-1.8-3.9-5.7-3.9h-4v7.7L295.8,38.7z
			 M318.2,40.4h-9.6V40c2.3-0.6,2.7-1.1,2.7-4.3V25.5c0-3.2-0.4-3.7-2.7-4.3v-0.4h9.6v0.4c-2.3,0.6-2.7,1.1-2.7,4.3v10.2
			c0,3.2,0.4,3.7,2.7,4.3V40.4z M321,40.4V40c2.3-0.6,2.7-1.1,2.7-4.3V25.5c0-3.2-0.4-3.7-2.7-4.3v-0.4h9.8v0.4
			c-2.5,0.6-3,1.1-3,4.3v13.2h5.2c3,0,4.5-1,7.2-6.1h0.4l-0.8,7.8L321,40.4z M341.3,20.7h19.8l0.7,7.1h-0.4
			c-2.6-4.6-3.9-5.3-6.5-5.3h-1.7v13.2c0,3.2,0.4,3.7,3,4.3v0.4h-10.1V40c2.5-0.6,3-1.1,3-4.3V22.5h-1.7c-2.5,0-3.9,0.7-6.4,5.3
			h-0.4L341.3,20.7z"/>
		
			<linearGradient id="SVGID_1_" gradientUnits="userSpaceOnUse" x1="-31.719" y1="7314.3774" x2="39.131" y2="7339.2773" gradientTransform="matrix(1 0 0 1 0 -7293.0098)">
			<stop  offset="0" style="stop-color:#FEEEB6"/>
			<stop  offset="1" style="stop-color:#B49248"/>
		</linearGradient>
		<path class="st0" d="M23.1,0H0v1.1c6.9,4.7,10.3,8.4,14.6,17.7L47.9,90h14.9L23.1,0z"/>
		
			<linearGradient id="SVGID_00000124850136912947994670000005265633890102593440_" gradientUnits="userSpaceOnUse" x1="24.7575" y1="7266.5513" x2="78.7675" y2="7395.3809" gradientTransform="matrix(1 0 0 1 0 -7293.0098)">
			<stop  offset="0" style="stop-color:#FEEEB6"/>
			<stop  offset="1" style="stop-color:#B49248"/>
		</linearGradient>
		<path style="fill:url(#SVGID_00000124850136912947994670000005265633890102593440_);" d="M62.8,90V58.5L44.5,19.1
			c-4.3-9.2-3.2-13.9,4.1-18V0H23.1L62.8,90z"/>
		
			<linearGradient id="SVGID_00000141449730561277481610000011232103367425139849_" gradientUnits="userSpaceOnUse" x1="81.371" y1="7288.9751" x2="107.311" y2="7387.8149" gradientTransform="matrix(1 0 0 1 0 -7293.0098)">
			<stop  offset="0" style="stop-color:#FEEEB6"/>
			<stop  offset="1" style="stop-color:#B49248"/>
		</linearGradient>
		<path style="fill:url(#SVGID_00000141449730561277481610000011232103367425139849_);" d="M102.5,0h23.2v1.1
			c-6.9,4.7-10.3,8.4-14.6,17.7L77.8,90h-15L102.5,0z"/>
		
			<linearGradient id="SVGID_00000160907810628842898430000011391902435830818949_" gradientUnits="userSpaceOnUse" x1="42.4043" y1="7289.5464" x2="90.1243" y2="7346.9463" gradientTransform="matrix(1 0 0 1 0 -7293.0098)">
			<stop  offset="0" style="stop-color:#FEEEB6"/>
			<stop  offset="1" style="stop-color:#B49248"/>
		</linearGradient>
		<path style="fill:url(#SVGID_00000160907810628842898430000011391902435830818949_);" d="M62.8,90V58.5l18.4-39.4
			c4.3-9.2,3.2-13.9-4.1-18V0h25.4L62.8,90z"/>
	</g>
</g>
</svg>
